<svg xmlns="http://www.w3.org/2000/svg" xmlns:xlink="http://www.w3.org/1999/xlink" width="1080" zoomAndPan="magnify" viewBox="0 0 810 809.999993" height="1080" preserveAspectRatio="xMidYMid meet" version="1.0"><defs><g/><clipPath id="419a60bdf3"><path d="M 339 213.398438 L 471 213.398438 L 471 439.898438 L 339 439.898438 Z M 339 213.398438 " clip-rule="nonzero"/></clipPath></defs><path fill="#07a5c3" d="M 414.859375 251.378906 C 410.308594 243.792969 410.308594 234.691406 398.171875 228.621094 C 393.621094 225.585938 387.550781 224.070312 379.964844 225.585938 C 381.480469 234.691406 386.03125 242.277344 393.621094 248.34375 C 399.6875 255.929688 410.308594 258.964844 420.929688 260.484375 C 425.480469 258.964844 431.550781 257.449219 434.585938 255.929688 C 436.101562 255.929688 436.101562 254.414062 437.621094 254.414062 C 443.6875 248.34375 448.238281 239.242188 449.757812 230.136719 C 443.6875 230.136719 437.621094 231.65625 431.550781 234.691406 C 425.480469 237.726562 420.929688 243.792969 419.414062 251.378906 C 417.894531 251.378906 417.894531 251.378906 416.378906 251.378906 C 416.378906 252.898438 414.859375 251.378906 414.859375 251.378906 Z M 414.859375 251.378906 " fill-opacity="1" fill-rule="evenodd"/><path fill="#f4b324" d="M 398.171875 275.65625 C 384.515625 278.691406 373.894531 289.3125 366.308594 299.929688 C 358.722656 313.585938 354.171875 330.277344 354.171875 346.964844 C 354.171875 363.65625 358.722656 378.828125 366.308594 394 C 373.894531 404.621094 384.515625 413.726562 398.171875 418.277344 C 399.6875 419.792969 402.722656 419.792969 404.238281 419.792969 L 407.273438 421.3125 L 407.273438 424.34375 C 407.273438 425.863281 408.792969 428.898438 411.824219 428.898438 C 413.34375 428.898438 414.859375 425.863281 414.859375 424.34375 L 414.859375 421.3125 L 417.894531 419.792969 C 420.929688 419.792969 423.964844 419.792969 425.480469 418.277344 C 439.136719 413.726562 449.757812 404.621094 455.824219 394 C 464.929688 378.828125 469.480469 363.65625 469.480469 346.964844 C 469.480469 330.277344 464.929688 313.585938 455.824219 299.929688 C 443.6875 280.207031 422.445312 266.550781 398.171875 275.65625 Z M 399.6875 286.277344 C 398.171875 284.757812 396.652344 284.757812 393.621094 284.757812 C 392.101562 286.277344 390.585938 289.3125 392.101562 292.34375 C 393.621094 293.863281 396.652344 293.863281 398.171875 293.863281 C 401.207031 292.34375 401.207031 289.3125 399.6875 286.277344 Z M 433.066406 312.070312 C 431.550781 309.035156 428.515625 307.519531 425.480469 307.519531 C 422.445312 309.035156 420.929688 312.070312 420.929688 315.105469 C 422.445312 318.136719 425.480469 319.65625 428.515625 318.136719 C 431.550781 318.136719 433.066406 315.105469 433.066406 312.070312 Z M 431.550781 290.828125 C 430.03125 289.3125 428.515625 287.792969 427 287.792969 C 423.964844 289.3125 423.964844 290.828125 423.964844 292.34375 C 423.964844 293.863281 427 295.378906 428.515625 295.378906 C 430.03125 293.863281 431.550781 292.34375 431.550781 290.828125 Z M 434.585938 392.484375 C 433.066406 390.964844 431.550781 390.964844 430.03125 390.964844 C 427 390.964844 427 392.484375 427 395.519531 C 427 397.035156 430.03125 398.550781 431.550781 397.035156 C 433.066406 397.035156 434.585938 395.519531 434.585938 392.484375 Z M 448.238281 334.828125 C 448.238281 333.3125 445.207031 331.792969 442.171875 331.792969 C 439.136719 333.3125 437.621094 334.828125 439.136719 337.863281 C 439.136719 340.898438 442.171875 342.414062 445.207031 340.898438 C 446.722656 340.898438 448.238281 337.863281 448.238281 334.828125 Z M 413.34375 354.550781 C 413.34375 351.519531 410.308594 351.519531 408.792969 351.519531 C 407.273438 351.519531 405.757812 354.550781 407.273438 356.070312 C 407.273438 357.585938 408.792969 359.105469 410.308594 359.105469 C 413.34375 357.585938 413.34375 356.070312 413.34375 354.550781 Z M 439.136719 363.65625 C 439.136719 360.621094 436.101562 359.105469 433.066406 359.105469 C 430.03125 360.621094 428.515625 363.65625 428.515625 366.691406 C 430.03125 369.726562 433.066406 371.242188 436.101562 369.726562 C 439.136719 369.726562 440.652344 366.691406 439.136719 363.65625 Z M 430.03125 340.898438 C 428.515625 339.378906 427 337.863281 425.480469 339.378906 C 423.964844 339.378906 422.445312 340.898438 422.445312 342.414062 C 423.964844 345.449219 425.480469 345.449219 427 345.449219 C 428.515625 345.449219 430.03125 342.414062 430.03125 340.898438 Z M 407.273438 334.828125 C 407.273438 331.792969 404.238281 330.277344 401.207031 331.792969 C 398.171875 331.792969 396.652344 334.828125 398.171875 336.34375 C 398.171875 339.378906 401.207031 340.898438 404.238281 340.898438 C 405.757812 339.378906 407.273438 337.863281 407.273438 334.828125 Z M 372.378906 378.828125 Z M 392.101562 302.964844 C 384.515625 313.585938 379.964844 325.726562 378.445312 337.863281 C 376.929688 351.519531 378.445312 363.65625 381.480469 375.792969 C 383 378.828125 381.480469 380.34375 378.445312 381.863281 C 376.929688 381.863281 373.894531 381.863281 372.378906 378.828125 C 369.34375 365.171875 367.824219 351.519531 369.34375 337.863281 C 370.859375 324.207031 375.414062 310.550781 383 298.414062 C 384.515625 296.898438 387.550781 295.378906 390.585938 296.898438 C 392.101562 298.414062 392.101562 301.449219 392.101562 302.964844 Z M 392.101562 302.964844 " fill-opacity="1" fill-rule="evenodd"/><g clip-path="url(#419a60bdf3)"><path fill="#303030" d="M 471 346.964844 C 471 312.070312 454.308594 283.242188 431.550781 271.105469 C 427 272.621094 423.964844 274.136719 419.414062 275.65625 C 433.066406 278.691406 442.171875 289.3125 449.757812 299.929688 C 458.859375 313.585938 463.414062 330.277344 463.414062 346.964844 C 463.414062 363.65625 458.859375 378.828125 449.757812 394 C 442.171875 404.621094 431.550781 413.726562 419.414062 418.277344 C 417.894531 418.277344 417.894531 419.792969 416.378906 419.792969 L 408.792969 419.792969 L 408.792969 428.898438 C 408.792969 430.414062 407.273438 431.929688 405.757812 431.929688 C 402.722656 431.929688 401.207031 430.414062 401.207031 428.898438 L 401.207031 419.792969 L 393.621094 419.792969 C 393.621094 419.792969 392.101562 418.277344 392.101562 418.277344 C 378.445312 413.726562 367.824219 404.621094 360.238281 394 C 351.136719 378.828125 348.101562 363.65625 348.101562 346.964844 C 348.101562 330.277344 351.136719 313.585938 360.238281 299.929688 C 367.824219 289.3125 378.445312 278.691406 392.101562 275.65625 C 410.308594 269.585938 420.929688 277.171875 439.136719 258.964844 C 448.238281 249.863281 454.308594 237.726562 454.308594 225.585938 L 455.824219 221.035156 L 451.273438 221.035156 C 442.171875 218 431.550781 219.519531 422.445312 224.070312 C 419.414062 225.585938 414.859375 228.621094 411.824219 233.171875 C 408.792969 227.105469 404.238281 221.035156 398.171875 218 C 389.066406 213.449219 379.964844 211.929688 369.34375 214.964844 L 366.308594 216.484375 L 366.308594 219.519531 C 367.824219 233.171875 372.378906 245.3125 381.480469 252.898438 C 386.03125 255.929688 389.066406 258.964844 393.621094 262 C 395.136719 260.484375 396.652344 260.484375 396.652344 260.484375 C 399.6875 260.484375 407.273438 260.484375 413.34375 258.964844 C 413.34375 258.964844 414.859375 257.449219 416.378906 257.449219 C 405.757812 257.449219 395.136719 252.898438 389.066406 246.828125 C 381.480469 240.757812 376.929688 231.65625 375.414062 222.550781 C 381.480469 222.550781 389.066406 224.070312 393.621094 225.585938 C 405.757812 233.171875 405.757812 242.277344 410.308594 248.34375 C 410.308594 249.863281 411.824219 249.863281 411.824219 249.863281 C 413.34375 249.863281 413.34375 249.863281 413.34375 248.34375 C 416.378906 240.757812 420.929688 236.207031 427 231.65625 C 433.066406 228.621094 439.136719 227.105469 445.207031 228.621094 C 443.6875 237.726562 439.136719 245.3125 433.066406 251.378906 C 427 257.449219 420.929688 260.484375 413.34375 262 C 407.273438 263.519531 399.6875 263.519531 396.652344 265.035156 C 364.792969 269.585938 339 304.484375 339 346.964844 C 339 387.929688 363.273438 421.3125 393.621094 428.898438 C 393.621094 434.964844 399.6875 439.519531 405.757812 439.519531 C 411.824219 439.519531 416.378906 434.964844 416.378906 428.898438 C 448.238281 421.3125 471 387.929688 471 346.964844 Z M 405.757812 419.792969 C 405.757812 419.792969 405.757812 419.792969 404.238281 419.792969 C 405.757812 419.792969 405.757812 419.792969 405.757812 419.792969 Z M 405.757812 419.792969 " fill-opacity="1" fill-rule="evenodd"/></g><path fill="#303030" d="M 384.515625 302.964844 C 378.445312 313.585938 373.894531 325.726562 372.378906 337.863281 C 370.859375 351.519531 370.859375 363.65625 375.414062 375.792969 C 375.414062 378.828125 373.894531 380.34375 372.378906 381.863281 C 369.34375 381.863281 367.824219 381.863281 366.308594 378.828125 C 361.757812 365.171875 361.757812 351.519531 363.273438 337.863281 C 364.792969 324.207031 369.34375 310.550781 376.929688 298.414062 C 378.445312 296.898438 381.480469 295.378906 383 296.898438 C 386.03125 298.414062 386.03125 301.449219 384.515625 302.964844 Z M 384.515625 302.964844 " fill-opacity="1" fill-rule="nonzero"/><path fill="#303030" d="M 393.621094 287.792969 C 392.101562 284.757812 389.066406 284.757812 387.550781 284.757812 C 384.515625 286.277344 384.515625 289.3125 384.515625 292.34375 C 386.03125 293.863281 389.066406 293.863281 392.101562 293.863281 C 393.621094 292.34375 395.136719 289.3125 393.621094 287.792969 Z M 393.621094 287.792969 " fill-opacity="1" fill-rule="evenodd"/><path fill="#f14902" d="M 428.515625 278.691406 C 463.414062 316.621094 463.414062 374.277344 430.03125 413.726562 C 437.621094 407.65625 445.207031 401.585938 449.757812 394 C 458.859375 378.828125 461.894531 363.65625 461.894531 346.964844 C 461.894531 330.277344 458.859375 313.585938 449.757812 299.929688 C 445.207031 292.34375 437.621094 284.757812 428.515625 278.691406 Z M 428.515625 278.691406 " fill-opacity="1" fill-rule="evenodd"/><g fill="#07a5c3" fill-opacity="1"><g transform="translate(285.868729, 505.925707)"><g><path d="M 3.15625 0 L 3.15625 -0.8125 C 4.113281 -1.09375 4.765625 -1.707031 5.109375 -2.65625 C 5.460938 -3.613281 5.640625 -5.351562 5.640625 -7.875 L 5.640625 -35.53125 C 5.640625 -38.09375 5.460938 -39.835938 5.109375 -40.765625 C 4.765625 -41.691406 4.113281 -42.300781 3.15625 -42.59375 L 3.15625 -43.40625 L 13.203125 -43.40625 L 13.203125 -42.59375 C 12.253906 -42.300781 11.601562 -41.691406 11.25 -40.765625 C 10.894531 -39.835938 10.71875 -38.09375 10.71875 -35.53125 L 10.71875 -3.78125 C 10.71875 -1.914062 11.648438 -0.984375 13.515625 -0.984375 L 20.890625 -0.984375 C 23.867188 -0.984375 26.148438 -1.425781 27.734375 -2.3125 C 29.328125 -3.207031 30.664062 -4.8125 31.75 -7.125 L 32.421875 -7 L 31.984375 0 Z M 3.15625 0 "/></g></g></g><g fill="#07a5c3" fill-opacity="1"><g transform="translate(319.530448, 505.925707)"><g><path d="M 1.859375 11.96875 C 0.660156 12.007812 -0.335938 11.851562 -1.140625 11.5 C -1.953125 11.144531 -2.359375 10.722656 -2.359375 10.234375 C -2.359375 9.816406 -2.191406 9.347656 -1.859375 8.828125 C -1.523438 8.316406 -1.066406 7.851562 -0.484375 7.4375 C 0.0859375 7.019531 0.742188 6.8125 1.484375 6.8125 C 2.316406 6.8125 3.472656 6.988281 4.953125 7.34375 C 6.441406 7.695312 7.890625 8 9.296875 8.25 C 10.367188 7.289062 11.378906 6.097656 12.328125 4.671875 C 13.285156 3.253906 14.15625 1.738281 14.9375 0.125 L 4.78125 -23.75 C 3.820312 -26.0625 2.945312 -27.640625 2.15625 -28.484375 C 1.375 -29.335938 0.65625 -29.90625 0 -30.1875 L 0 -31 L 9.359375 -31 L 9.359375 -30.1875 C 8.453125 -29.90625 8.082031 -29.335938 8.25 -28.484375 C 8.414062 -27.640625 8.992188 -26.0625 9.984375 -23.75 L 17.609375 -6.015625 L 25.234375 -23.75 C 26.097656 -25.769531 26.488281 -27.296875 26.40625 -28.328125 C 26.320312 -29.367188 25.742188 -29.988281 24.671875 -30.1875 L 24.671875 -31 L 31.5625 -31 L 31.5625 -30.1875 C 30.6875 -29.90625 29.828125 -29.335938 28.984375 -28.484375 C 28.140625 -27.640625 27.195312 -26.0625 26.15625 -23.75 L 16.546875 -1.546875 C 15.222656 1.460938 13.898438 3.878906 12.578125 5.703125 C 11.265625 7.523438 9.972656 8.878906 8.703125 9.765625 C 7.441406 10.648438 6.234375 11.238281 5.078125 11.53125 C 3.921875 11.820312 2.847656 11.96875 1.859375 11.96875 Z M 1.859375 11.96875 "/></g></g></g><g fill="#07a5c3" fill-opacity="1"><g transform="translate(350.774465, 505.925707)"><g><path d="M 1.984375 0 L 1.984375 -0.8125 C 2.929688 -1.09375 3.582031 -1.707031 3.9375 -2.65625 C 4.289062 -3.613281 4.46875 -5.351562 4.46875 -7.875 L 4.46875 -22.140625 C 4.46875 -23.578125 4.375 -24.65625 4.1875 -25.375 C 4 -26.101562 3.726562 -26.632812 3.375 -26.96875 C 3.03125 -27.300781 2.566406 -27.59375 1.984375 -27.84375 L 1.984375 -28.515625 L 8.734375 -31.5 L 9.296875 -31.0625 L 9.296875 -25.796875 C 11.160156 -27.285156 13.207031 -28.597656 15.4375 -29.734375 C 17.664062 -30.867188 19.898438 -31.4375 22.140625 -31.4375 C 26.804688 -31.4375 29.675781 -29.492188 30.75 -25.609375 C 32.613281 -27.097656 34.691406 -28.441406 36.984375 -29.640625 C 39.273438 -30.835938 41.578125 -31.4375 43.890625 -31.4375 C 46.910156 -31.4375 49.1875 -30.597656 50.71875 -28.921875 C 52.25 -27.242188 53.015625 -24.648438 53.015625 -21.140625 L 53.015625 -7.875 C 53.015625 -5.351562 53.195312 -3.613281 53.5625 -2.65625 C 53.9375 -1.707031 54.578125 -1.09375 55.484375 -0.8125 L 55.484375 0 L 45.6875 0 L 45.6875 -0.8125 C 46.644531 -1.09375 47.296875 -1.707031 47.640625 -2.65625 C 47.992188 -3.613281 48.171875 -5.351562 48.171875 -7.875 L 48.171875 -20.03125 C 48.171875 -26.269531 45.816406 -29.390625 41.109375 -29.390625 C 39.328125 -29.390625 37.609375 -28.953125 35.953125 -28.078125 C 34.304688 -27.210938 32.632812 -26.117188 30.9375 -24.796875 C 31.1875 -23.765625 31.3125 -22.546875 31.3125 -21.140625 L 31.3125 -7.875 C 31.3125 -5.351562 31.484375 -3.613281 31.828125 -2.65625 C 32.179688 -1.707031 32.835938 -1.09375 33.796875 -0.8125 L 33.796875 0 L 24 0 L 24 -0.8125 C 24.945312 -1.09375 25.59375 -1.707031 25.9375 -2.65625 C 26.289062 -3.613281 26.46875 -5.351562 26.46875 -7.875 L 26.46875 -20.03125 C 26.46875 -26.269531 24.113281 -29.390625 19.40625 -29.390625 C 17.625 -29.390625 15.914062 -28.960938 14.28125 -28.109375 C 12.65625 -27.265625 10.992188 -26.203125 9.296875 -24.921875 L 9.296875 -7.875 C 9.296875 -5.351562 9.472656 -3.613281 9.828125 -2.65625 C 10.179688 -1.707031 10.832031 -1.09375 11.78125 -0.8125 L 11.78125 0 Z M 1.984375 0 "/></g></g></g><g fill="#07a5c3" fill-opacity="1"><g transform="translate(407.559233, 505.925707)"><g><path d="M 16.921875 0.625 C 15.234375 0.625 13.519531 0.316406 11.78125 -0.296875 C 10.039062 -0.921875 8.445312 -1.863281 7 -3.125 C 5.5625 -4.382812 4.40625 -5.960938 3.53125 -7.859375 C 2.664062 -9.765625 2.234375 -12 2.234375 -14.5625 C 2.234375 -17.957031 2.988281 -20.914062 4.5 -23.4375 C 6.007812 -25.957031 8.003906 -27.921875 10.484375 -29.328125 C 12.960938 -30.734375 15.644531 -31.4375 18.53125 -31.4375 C 21.132812 -31.4375 23.359375 -30.925781 25.203125 -29.90625 C 27.046875 -28.894531 28.472656 -27.5625 29.484375 -25.90625 C 30.492188 -24.257812 31.019531 -22.441406 31.0625 -20.453125 L 6.8125 -20.453125 C 6.695312 -19.546875 6.640625 -18.597656 6.640625 -17.609375 C 6.640625 -14.796875 7.1875 -12.300781 8.28125 -10.125 C 9.375 -7.957031 10.921875 -6.273438 12.921875 -5.078125 C 14.929688 -3.878906 17.28125 -3.28125 19.96875 -3.28125 C 22.363281 -3.28125 24.445312 -3.773438 26.21875 -4.765625 C 28 -5.765625 29.59375 -7.070312 31 -8.6875 L 31.5625 -8.125 C 30.53125 -6.675781 29.289062 -5.28125 27.84375 -3.9375 C 26.394531 -2.59375 24.769531 -1.492188 22.96875 -0.640625 C 21.175781 0.203125 19.160156 0.625 16.921875 0.625 Z M 7 -21.265625 L 26.109375 -21.265625 C 25.898438 -22.671875 25.390625 -24.066406 24.578125 -25.453125 C 23.773438 -26.835938 22.703125 -27.992188 21.359375 -28.921875 C 20.015625 -29.847656 18.390625 -30.3125 16.484375 -30.3125 C 13.847656 -30.351562 11.734375 -29.503906 10.140625 -27.765625 C 8.546875 -26.035156 7.5 -23.867188 7 -21.265625 Z M 7 -21.265625 "/></g></g></g><g fill="#07a5c3" fill-opacity="1"><g transform="translate(440.848996, 505.925707)"><g><path d="M 26.59375 0.625 C 21.84375 0.625 17.71875 -0.222656 14.21875 -1.921875 C 10.726562 -3.617188 8.019531 -6.066406 6.09375 -9.265625 C 4.175781 -12.472656 3.21875 -16.328125 3.21875 -20.828125 C 3.21875 -24.140625 3.816406 -27.1875 5.015625 -29.96875 C 6.210938 -32.757812 7.914062 -35.195312 10.125 -37.28125 C 12.34375 -39.375 14.96875 -40.988281 18 -42.125 C 21.039062 -43.257812 24.382812 -43.828125 28.03125 -43.828125 C 29.800781 -43.828125 31.601562 -43.671875 33.4375 -43.359375 C 35.28125 -43.054688 36.96875 -42.675781 38.5 -42.21875 C 40.03125 -41.769531 41.1875 -41.273438 41.96875 -40.734375 L 42.21875 -33.359375 L 41.609375 -33.234375 C 40.398438 -36.046875 38.398438 -38.316406 35.609375 -40.046875 C 32.828125 -41.785156 29.597656 -42.65625 25.921875 -42.65625 C 22.648438 -42.65625 19.691406 -41.929688 17.046875 -40.484375 C 14.398438 -39.035156 12.300781 -36.882812 10.75 -34.03125 C 9.207031 -31.1875 8.4375 -27.65625 8.4375 -23.4375 C 8.4375 -20.539062 8.859375 -17.726562 9.703125 -15 C 10.546875 -12.269531 11.816406 -9.820312 13.515625 -7.65625 C 15.210938 -5.488281 17.300781 -3.773438 19.78125 -2.515625 C 22.257812 -1.253906 25.109375 -0.625 28.328125 -0.625 C 31.679688 -0.625 34.609375 -1.488281 37.109375 -3.21875 C 39.609375 -4.957031 41.457031 -7.5 42.65625 -10.84375 L 43.34375 -10.78125 L 42.34375 -2.734375 C 40.894531 -1.941406 38.773438 -1.179688 35.984375 -0.453125 C 33.203125 0.265625 30.070312 0.625 26.59375 0.625 Z M 26.59375 0.625 "/></g></g></g><g fill="#07a5c3" fill-opacity="1"><g transform="translate(486.785132, 505.925707)"><g><path d="M 18.46875 0.625 C 16.488281 0.625 14.535156 0.316406 12.609375 -0.296875 C 10.691406 -0.921875 8.945312 -1.875 7.375 -3.15625 C 5.800781 -4.4375 4.550781 -6.066406 3.625 -8.046875 C 2.695312 -10.035156 2.234375 -12.375 2.234375 -15.0625 C 2.234375 -18.289062 2.992188 -21.132812 4.515625 -23.59375 C 6.046875 -26.050781 8.050781 -27.972656 10.53125 -29.359375 C 13.019531 -30.742188 15.664062 -31.4375 18.46875 -31.4375 C 20.414062 -31.4375 22.335938 -31.132812 24.234375 -30.53125 C 26.140625 -29.9375 27.878906 -29 29.453125 -27.71875 C 31.023438 -26.4375 32.285156 -24.800781 33.234375 -22.8125 C 34.179688 -20.832031 34.65625 -18.457031 34.65625 -15.6875 C 34.65625 -13.039062 34.171875 -10.703125 33.203125 -8.671875 C 32.234375 -6.648438 30.941406 -4.945312 29.328125 -3.5625 C 27.710938 -2.175781 25.953125 -1.128906 24.046875 -0.421875 C 22.148438 0.273438 20.289062 0.625 18.46875 0.625 Z M 7 -18.59375 C 7 -16.613281 7.304688 -14.578125 7.921875 -12.484375 C 8.546875 -10.398438 9.4375 -8.46875 10.59375 -6.6875 C 11.757812 -4.914062 13.15625 -3.472656 14.78125 -2.359375 C 16.414062 -1.242188 18.269531 -0.6875 20.34375 -0.6875 C 22.570312 -0.6875 24.390625 -1.210938 25.796875 -2.265625 C 27.203125 -3.316406 28.242188 -4.707031 28.921875 -6.4375 C 29.609375 -8.175781 29.953125 -10.039062 29.953125 -12.03125 C 29.953125 -14.007812 29.617188 -16.082031 28.953125 -18.25 C 28.296875 -20.425781 27.351562 -22.441406 26.125 -24.296875 C 24.90625 -26.160156 23.445312 -27.648438 21.75 -28.765625 C 20.0625 -29.878906 18.207031 -30.375 16.1875 -30.25 C 14.070312 -30.164062 12.332031 -29.585938 10.96875 -28.515625 C 9.601562 -27.441406 8.597656 -26.035156 7.953125 -24.296875 C 7.316406 -22.566406 7 -20.664062 7 -18.59375 Z M 7 -18.59375 "/></g></g></g></svg>